<svg width="246" height="183" viewBox="0 0 246 183" fill="none" xmlns="http://www.w3.org/2000/svg">
<path d="M183.847 35.7901C183.847 35.7901 183.841 35.7901 183.838 35.7901C183.093 35.609 182.309 35.5506 181.512 35.6427C181.362 35.6581 181.209 35.6765 181.059 35.7041L149.533 41.2758C139.138 43.1115 132.197 53.0454 134.029 63.4643C135.86 73.8801 145.774 80.8363 156.171 79.0006L187.698 73.4289C187.841 73.4043 187.985 73.3705 188.129 73.3368C188.914 73.1495 189.634 72.8241 190.277 72.3974C190.277 72.3974 190.283 72.3974 190.286 72.3913C192.477 70.9362 193.72 68.2655 193.233 65.5057L188.966 41.2543C188.479 38.4946 186.402 36.4102 183.847 35.7931V35.7901Z" fill="#9A81B9"/>
<path d="M163.052 56.285C163.285 56.9082 163.465 57.562 163.585 58.2405C163.704 58.9189 163.76 59.6127 163.753 60.288C163.689 65.4453 159.979 69.9917 154.728 70.9187C150.982 71.5818 147.345 70.2434 144.91 67.674C143.559 66.2526 142.576 64.4445 142.147 62.3939C142.122 62.2772 142.101 62.1637 142.079 62.0439C142.061 61.9365 142.043 61.826 142.027 61.7155C141.724 59.6372 142.027 57.6019 142.808 55.7969C144.221 52.5368 147.183 50.0257 150.936 49.3626C156.199 48.4325 161.244 51.4439 163.055 56.2819L163.052 56.285Z" fill="#DFD4EE"/>
<path d="M192.59 85.8034V85.8126C192.673 86.4972 192.722 87.1725 192.752 87.851C192.752 87.851 192.752 87.8571 192.752 87.8602C193.325 101.594 183.991 114.006 170.374 117.051L95.5483 130.272C80.4361 132.243 66.3074 121.959 63.633 106.77L53.1038 46.9275C50.3559 31.3053 60.7656 16.4045 76.3617 13.6478L148.598 0.883578C162.899 -1.64287 176.586 6.92187 180.881 20.4106C180.989 20.7452 181.087 21.0798 181.182 21.4175C181.641 23.0629 181.077 24.871 179.68 25.8472C179.209 26.1756 178.66 26.412 178.057 26.5164L147.86 31.8517C139.883 33.2607 133.263 37.8501 129.069 44.0879C125.059 50.0464 123.263 57.4999 124.605 65.1314C125.947 72.7629 130.184 79.1634 135.992 83.3844C142.058 87.8049 149.842 89.8433 157.816 88.4342L188.013 83.0989C190.026 82.7428 191.953 83.9278 192.596 85.8065L192.59 85.8034Z" fill="#2A2A62"/>
<path d="M13.438 153.689C15.9745 153.689 18.1833 154.186 20.0643 155.18C21.9452 156.175 23.4096 157.642 24.4573 159.583C25.5019 161.52 26.0258 163.865 26.0258 166.615V181.664H19.6721V175.064H7.12415V181.664H0.850159V166.615C0.850159 163.865 1.37401 161.52 2.41866 159.583C3.4633 157.646 4.92764 156.178 6.81168 155.18C8.69265 154.186 10.9014 153.689 13.438 153.689ZM19.6721 169.955V166.026C19.6721 163.748 19.1115 162.032 17.9872 160.878C16.8629 159.699 15.3343 159.11 13.3981 159.11C11.462 159.11 9.8966 159.699 8.7723 160.878C7.67558 162.029 7.12415 163.745 7.12415 166.026V169.955H19.6721ZM39.4315 181.98C37.0512 181.98 35.1978 181.351 33.8621 180.095C32.5295 178.812 31.8617 177.004 31.8617 174.674V152.513H37.9795V174.321C37.9795 175.211 38.2 175.905 38.6473 176.402C39.1191 176.875 39.7716 177.108 40.6079 177.108C40.9204 177.108 41.2359 177.068 41.5484 176.991C41.8884 176.912 42.1488 176.823 42.3326 176.715L42.6084 181.47C41.5882 181.811 40.5313 181.98 39.4315 181.98ZM54.6693 173.375L51.7283 176.282V181.667H45.6106V152.51H51.7283V169.013L60.6675 160.525H67.9617L59.1787 169.483L68.7459 181.664H61.3354L54.6693 173.372V173.375ZM81.2051 177.068C82.3018 177.068 83.2698 176.912 84.1062 176.595C84.9701 176.255 85.7666 175.73 86.4987 175.024L89.7521 178.56C87.7639 180.838 84.8628 181.98 81.0457 181.98C78.6654 181.98 76.5639 181.522 74.7319 180.605C72.903 179.662 71.4908 178.364 70.4982 176.715C69.5057 175.064 69.0094 173.191 69.0094 171.097C69.0094 169.004 69.4934 167.168 70.4615 165.516C71.454 163.84 72.8019 162.542 74.4991 161.627C76.2238 160.685 78.16 160.212 80.3013 160.212C82.314 160.212 84.1429 160.645 85.7911 161.507C87.4392 162.345 88.7443 163.576 89.7123 165.2C90.7049 166.8 91.2012 168.697 91.2012 170.898L75.5958 173.925C76.04 174.971 76.7324 175.757 77.6729 176.282C78.6409 176.807 79.8173 177.068 81.202 177.068H81.2051ZM80.3044 164.847C78.7604 164.847 77.5074 165.345 76.5394 166.339C75.5713 167.334 75.0628 168.709 75.0107 170.465L85.2856 168.46C84.9976 167.361 84.4094 166.483 83.521 165.827C82.6326 165.173 81.5604 164.844 80.3044 164.844V164.847ZM147.673 154.161V170.388C147.673 174.213 146.641 177.133 144.576 179.149C142.511 181.142 139.583 182.136 135.793 182.136C133.912 182.136 132.224 181.86 130.735 181.311C129.271 180.761 128.07 179.988 127.127 178.993C126.158 179.988 124.942 180.761 123.481 181.311C122.017 181.86 120.356 182.136 118.5 182.136C114.71 182.136 111.782 181.142 109.717 179.149C107.652 177.133 106.62 174.21 106.62 170.388V154.161H112.973V170.192C112.973 172.417 113.43 174.069 114.346 175.143C115.262 176.19 116.619 176.715 118.423 176.715C122.109 176.715 123.953 174.542 123.953 170.192V154.161H130.306V170.192C130.306 174.542 132.163 176.715 135.876 176.715C139.589 176.715 141.286 174.542 141.286 170.192V154.161H147.676H147.673ZM174.932 160.525V181.664H169.09V179.226C167.574 181.059 165.377 181.977 162.503 181.977C160.515 181.977 158.714 181.532 157.093 180.641C155.497 179.751 154.244 178.48 153.328 176.829C152.412 175.177 151.956 173.265 151.956 171.091C151.956 168.918 152.412 167.005 153.328 165.354C154.244 163.702 155.497 162.434 157.093 161.541C158.714 160.651 160.518 160.206 162.503 160.206C165.196 160.206 167.301 161.056 168.817 162.76V160.519H174.935L174.932 160.525ZM163.56 176.951C165.101 176.951 166.385 176.427 167.402 175.38C168.422 174.305 168.931 172.878 168.931 171.097C168.931 169.317 168.422 167.902 167.402 166.855C166.382 165.78 165.101 165.243 163.56 165.243C162.019 165.243 160.699 165.78 159.679 166.855C158.659 167.902 158.15 169.317 158.15 171.097C158.15 172.878 158.659 174.305 159.679 175.38C160.699 176.427 161.992 176.951 163.56 176.951ZM188.163 181.98C185.783 181.98 183.929 181.351 182.594 180.095C181.261 178.812 180.593 177.004 180.593 174.674V152.513H186.711V174.321C186.711 175.211 186.932 175.905 187.379 176.402C187.851 176.875 188.503 177.108 189.34 177.108C189.652 177.108 189.968 177.068 190.28 176.991C190.62 176.912 190.88 176.823 191.064 176.715L191.34 181.47C190.32 181.811 189.263 181.98 188.163 181.98ZM201.912 181.98C199.532 181.98 197.678 181.351 196.343 180.095C195.01 178.812 194.342 177.004 194.342 174.674V152.513H200.46V174.321C200.46 175.211 200.68 175.905 201.128 176.402C201.6 176.875 202.252 177.108 203.088 177.108C203.401 177.108 203.716 177.068 204.029 176.991C204.369 176.912 204.629 176.823 204.813 176.715L205.089 181.47C204.069 181.811 203.012 181.98 201.912 181.98ZM218.332 177.068C219.429 177.068 220.397 176.912 221.233 176.595C222.097 176.255 222.894 175.73 223.626 175.024L226.879 178.56C224.891 180.838 221.99 181.98 218.173 181.98C215.793 181.98 213.688 181.522 211.859 180.605C210.03 179.662 208.618 178.364 207.625 176.715C206.633 175.064 206.137 173.191 206.137 171.097C206.137 169.004 206.621 167.168 207.589 165.516C208.581 163.84 209.929 162.542 211.626 161.627C213.351 160.685 215.287 160.212 217.428 160.212C219.441 160.212 221.27 160.645 222.918 161.507C224.566 162.345 225.871 163.576 226.839 165.2C227.832 166.8 228.328 168.697 228.328 170.898L212.723 173.925C213.167 174.971 213.86 175.757 214.8 176.282C215.768 176.807 216.944 177.068 218.329 177.068H218.332ZM217.432 164.847C215.888 164.847 214.635 165.345 213.667 166.339C212.699 167.334 212.19 168.709 212.138 170.465L222.413 168.46C222.125 167.361 221.537 166.483 220.648 165.827C219.76 165.173 218.688 164.844 217.432 164.844V164.847ZM245.15 180.644C244.549 181.09 243.805 181.43 242.914 181.667C242.05 181.875 241.149 181.98 240.208 181.98C237.672 181.98 235.724 181.338 234.366 180.055C233.006 178.772 232.326 176.884 232.326 174.397V155.85H238.444V160.998H243.658V165.713H238.444V174.318C238.444 175.208 238.668 175.902 239.112 176.399C239.556 176.872 240.196 177.105 241.033 177.105C241.973 177.105 242.809 176.844 243.542 176.319L245.15 180.641V180.644Z" fill="#2A2A62"/>
</svg>
