<svg width="701" height="600" viewBox="0 0 701 600" fill="none" xmlns="http://www.w3.org/2000/svg">
<path fill-rule="evenodd" clip-rule="evenodd" d="M484.078 172.594H484.099V172.6C489.717 173.955 494.284 178.529 495.355 184.585L504.739 237.803C505.81 243.859 503.075 249.72 498.259 252.913C498.252 252.927 498.239 252.927 498.239 252.927C496.824 253.863 495.241 254.577 493.516 254.988L493.516 254.988C493.199 255.062 492.883 255.136 492.566 255.19L423.241 267.417C400.377 271.445 378.578 256.18 374.55 233.323C370.521 210.46 385.786 188.66 408.643 184.632L477.968 172.405C478.299 172.344 478.635 172.304 478.965 172.27C480.717 172.068 482.441 172.196 484.078 172.594ZM439.543 221.857C439.281 220.368 438.883 218.933 438.371 217.566L438.378 217.559C434.397 206.942 423.302 200.334 411.728 202.375C403.476 203.83 396.962 209.341 393.856 216.495C392.138 220.456 391.472 224.922 392.138 229.483C392.172 229.725 392.213 229.968 392.253 230.204C392.3 230.466 392.347 230.716 392.401 230.972C393.344 235.472 395.507 239.439 398.478 242.558C403.833 248.197 411.829 251.134 420.068 249.679C431.614 247.644 439.772 237.668 439.914 226.35C439.927 224.868 439.806 223.346 439.543 221.857Z" fill="#DFD4EE"/>
<path d="M503.324 282.345V282.366C503.506 283.868 503.614 285.35 503.682 286.839C503.682 286.839 503.682 286.852 503.682 286.859C504.941 316.998 484.415 344.234 454.471 350.916L289.932 379.93C256.701 384.255 225.632 361.688 219.751 328.356L196.598 197.034C190.555 162.752 213.446 130.053 247.742 124.004L406.588 95.9936C438.034 90.4494 468.133 109.244 477.578 138.844C477.813 139.579 478.029 140.313 478.238 141.054C479.248 144.665 478.009 148.633 474.937 150.775C473.899 151.496 472.694 152.014 471.366 152.243L404.965 163.951C387.423 167.043 372.865 177.115 363.643 190.803C354.825 203.879 350.877 220.235 353.828 236.982C356.779 253.729 366.095 267.774 378.868 277.037C392.206 286.738 409.323 291.211 426.858 288.119L493.26 276.411C497.686 275.629 501.923 278.229 503.338 282.352L503.324 282.345Z" fill="#DFD4EE"/>
<path d="M109.374 431.317C114.952 431.317 119.809 432.409 123.945 434.591C128.081 436.774 131.301 439.994 133.605 444.251C135.902 448.502 137.054 453.649 137.054 459.685V492.707H123.083V478.224H95.49V492.707H81.6936V459.685C81.6936 453.649 82.8455 448.502 85.1427 444.251C87.4398 440.001 90.6599 436.781 94.8028 434.591C98.939 432.409 103.796 431.317 109.374 431.317ZM123.083 467.014V458.391C123.083 453.393 121.85 449.627 119.378 447.094C116.905 444.507 113.544 443.214 109.286 443.214C105.029 443.214 101.587 444.507 99.1142 447.094C96.7025 449.62 95.49 453.386 95.49 458.391V467.014H123.083ZM166.533 493.401C161.299 493.401 157.223 492.02 154.286 489.265C151.356 486.449 149.887 482.481 149.887 477.368V428.737H163.34V476.593C163.34 478.547 163.825 480.069 164.809 481.161C165.846 482.198 167.281 482.71 169.12 482.71C169.807 482.71 170.501 482.622 171.188 482.454C171.936 482.279 172.508 482.084 172.913 481.848L173.519 492.283C171.276 493.03 168.952 493.401 166.533 493.401ZM200.04 474.518L193.573 480.898V492.714H180.121V428.73H193.573V464.946L213.231 446.319H229.27L209.957 465.977L230.995 492.707H214.699L200.04 474.512V474.518ZM258.392 482.622C260.804 482.622 262.932 482.279 264.772 481.585C266.671 480.837 268.423 479.685 270.033 478.136L277.187 485.896C272.815 490.895 266.435 493.401 258.042 493.401C252.807 493.401 248.186 492.397 244.158 490.383C240.136 488.315 237.031 485.465 234.848 481.848C232.665 478.224 231.574 474.114 231.574 469.52C231.574 464.926 232.638 460.897 234.767 457.273C236.95 453.595 239.914 450.745 243.646 448.738C247.439 446.67 251.696 445.632 256.405 445.632C260.831 445.632 264.852 446.582 268.477 448.475C272.101 450.314 274.971 453.016 277.099 456.579C279.282 460.089 280.373 464.252 280.373 469.082L246.058 475.724C247.034 478.021 248.557 479.746 250.625 480.898C252.754 482.05 255.34 482.622 258.385 482.622H258.392ZM256.412 455.804C253.016 455.804 250.261 456.896 248.132 459.078C246.004 461.261 244.885 464.279 244.771 468.132L267.365 463.733C266.732 461.322 265.438 459.395 263.485 457.953C261.531 456.519 259.173 455.798 256.412 455.798V455.804ZM404.554 432.355V467.964C404.554 476.358 402.284 482.764 397.743 487.19C393.203 491.562 386.763 493.744 378.43 493.744C374.294 493.744 370.582 493.138 367.308 491.932C364.088 490.726 361.447 489.029 359.372 486.846C357.243 489.029 354.569 490.726 351.356 491.932C348.136 493.138 344.485 493.744 340.402 493.744C332.069 493.744 325.629 491.562 321.089 487.19C316.548 482.764 314.278 476.351 314.278 467.964V432.355H328.25V467.533C328.25 472.417 329.253 476.041 331.268 478.399C333.282 480.696 336.266 481.848 340.234 481.848C348.338 481.848 352.393 477.078 352.393 467.533V432.355H366.365V467.533C366.365 477.078 370.447 481.848 378.612 481.848C386.776 481.848 390.508 477.078 390.508 467.533V432.355H404.561H404.554ZM464.495 446.319V492.707H451.649V487.358C448.314 491.38 443.484 493.394 437.165 493.394C432.793 493.394 428.832 492.417 425.269 490.464C421.759 488.51 419.004 485.721 416.99 482.097C414.975 478.473 413.972 474.276 413.972 469.507C413.972 464.737 414.975 460.54 416.99 456.916C419.004 453.292 421.759 450.51 425.269 448.549C428.832 446.596 432.8 445.619 437.165 445.619C443.087 445.619 447.715 447.485 451.049 451.224V446.306H464.502L464.495 446.319ZM439.489 482.366C442.878 482.366 445.7 481.215 447.937 478.917C450.18 476.56 451.298 473.427 451.298 469.52C451.298 465.613 450.18 462.507 447.937 460.21C445.694 457.852 442.878 456.673 439.489 456.673C436.101 456.673 433.198 457.852 430.954 460.21C428.711 462.507 427.593 465.613 427.593 469.52C427.593 473.427 428.711 476.56 430.954 478.917C433.198 481.215 436.04 482.366 439.489 482.366ZM493.59 493.401C488.356 493.401 484.28 492.02 481.343 489.265C478.413 486.449 476.944 482.481 476.944 477.368V428.737H490.397V476.593C490.397 478.547 490.882 480.069 491.866 481.161C492.903 482.198 494.338 482.71 496.177 482.71C496.864 482.71 497.558 482.622 498.245 482.454C498.993 482.279 499.566 482.084 499.97 481.848L500.576 492.283C498.333 493.03 496.009 493.401 493.59 493.401ZM523.824 493.401C518.589 493.401 514.514 492.02 511.577 489.265C508.646 486.449 507.178 482.481 507.178 477.368V428.737H520.631V476.593C520.631 478.547 521.116 480.069 522.099 481.161C523.137 482.198 524.571 482.71 526.41 482.71C527.098 482.71 527.792 482.622 528.479 482.454C529.226 482.279 529.799 482.084 530.203 481.848L530.809 492.283C528.566 493.03 526.242 493.401 523.824 493.401ZM559.931 482.622C562.343 482.622 564.472 482.279 566.311 481.585C568.21 480.837 569.962 479.685 571.572 478.136L578.726 485.896C574.354 490.895 567.975 493.401 559.581 493.401C554.347 493.401 549.719 492.397 545.697 490.383C541.675 488.315 538.57 485.465 536.387 481.848C534.205 478.224 533.113 474.114 533.113 469.52C533.113 464.926 534.178 460.897 536.306 457.273C538.489 453.595 541.453 450.745 545.185 448.738C548.978 446.67 553.235 445.632 557.944 445.632C562.37 445.632 566.392 446.582 570.016 448.475C573.64 450.314 576.51 453.016 578.639 456.579C580.821 460.089 581.913 464.252 581.913 469.082L547.597 475.724C548.574 478.021 550.096 479.746 552.164 480.898C554.293 482.05 556.88 482.622 559.925 482.622H559.931ZM557.951 455.804C554.556 455.804 551.8 456.896 549.672 459.078C547.543 461.261 546.425 464.279 546.31 468.132L568.904 463.733C568.271 461.322 566.978 459.395 565.024 457.953C563.071 456.519 560.713 455.798 557.951 455.798V455.804ZM618.903 490.471C617.582 491.447 615.945 492.195 613.985 492.714C612.085 493.172 610.105 493.401 608.037 493.401C602.459 493.401 598.174 491.993 595.19 489.177C592.199 486.361 590.704 482.218 590.704 476.762V436.06H604.156V447.357H615.622V457.704H604.156V476.587C604.156 478.54 604.648 480.063 605.625 481.154C606.602 482.191 608.01 482.703 609.849 482.703C611.917 482.703 613.756 482.131 615.366 480.979L618.903 490.464V490.471Z" fill="#DFD4EE"/>
</svg>
