<svg width="280" height="222" viewBox="0 0 280 222" fill="none" xmlns="http://www.w3.org/2000/svg">
<path d="M8.88 221.97H250.05L241.17 55.26H0L8.88 221.97Z" fill="#2A2A62"/>
<path d="M155.04 38H240.25L241.17 55.26H151.06L155.04 38Z" fill="#2A2A62"/>
<g opacity="0.1">
<path d="M8.88 221.97H250.05L241.17 55.26H0L8.88 221.97Z" fill="black"/>
<path d="M155.04 38H240.25L241.17 55.26H151.06L155.04 38Z" fill="black"/>
</g>
<path d="M279.48 106.86L176.64 214.52L38.43 82.51L114.79 2.57L167.61 0L279.48 106.86Z" fill="#2A2A62"/>
<path opacity="0.6" d="M279.48 106.86L176.64 214.52L38.43 82.51L114.79 2.57L167.61 0L279.48 106.86Z" fill="white"/>
<path d="M114.79 2.57L167.61 0L141.13 27.72L114.79 2.57Z" fill="#2A2A62"/>
<path opacity="0.4" d="M114.79 2.57L167.61 0L141.13 27.72L114.79 2.57Z" fill="white"/>
<path d="M75.2008 97.5232L132.382 37.666L128.831 34.2744L71.6504 94.1316L75.2008 97.5232Z" fill="white"/>
<path d="M84.1592 106.086L141.34 46.2289L137.79 42.8373L80.6088 102.694L84.1592 106.086Z" fill="white"/>
<path d="M93.1104 114.642L150.291 54.7849L146.741 51.3933L89.56 111.251L93.1104 114.642Z" fill="white"/>
<path d="M102.07 123.197L185.852 35.4935L182.302 32.1019L98.5197 119.805L102.07 123.197Z" fill="white"/>
<path d="M111.031 131.753L194.813 44.0495L191.263 40.6579L107.481 128.361L111.031 131.753Z" fill="white"/>
<path d="M119.997 140.308L203.778 52.6052L200.228 49.2136L116.446 136.917L119.997 140.308Z" fill="white"/>
<path d="M128.948 148.864L212.73 61.1612L209.179 57.7695L125.397 145.473L128.948 148.864Z" fill="white"/>
<path d="M137.899 157.42L221.681 69.7172L218.13 66.3255L134.349 154.029L137.899 157.42Z" fill="white"/>
<path d="M146.857 165.983L230.639 78.2801L227.089 74.8885L143.307 162.592L146.857 165.983Z" fill="white"/>
<path d="M155.826 174.532L239.607 86.8288L236.057 83.4372L152.275 171.141L155.826 174.532Z" fill="white"/>
<path d="M164.777 183.088L248.559 95.3848L245.008 91.9932L161.226 179.697L164.777 183.088Z" fill="white"/>
<path d="M173.735 191.641L257.517 103.938L253.967 100.546L170.185 188.249L173.735 191.641Z" fill="white"/>
<path d="M13.21 144.28L160.46 126.91L148.74 28.45L1.48999 45.81L13.21 144.28Z" fill="#EBEBEB"/>
<path d="M18.6 137.43L153.62 121.5L143.35 35.3L8.32001 51.22L18.6 137.43Z" fill="white"/>
<path d="M23.77 76.65C24.1113 79.5536 25.3055 82.2908 27.2018 84.516C29.098 86.7412 31.6111 88.3546 34.4238 89.1522C37.2365 89.9498 40.2224 89.8959 43.0045 88.9974C45.7865 88.0988 48.2399 86.396 50.0546 84.1038C51.8693 81.8117 52.9641 79.0331 53.2004 76.1191C53.4368 73.2051 52.8043 70.2864 51.3827 67.7317C49.9612 65.1771 47.8144 63.101 45.2135 61.7658C42.6127 60.4306 39.6744 59.8962 36.77 60.23C34.8368 60.4509 32.9661 61.0513 31.2655 61.9969C29.5649 62.9424 28.0677 64.2145 26.8598 65.7401C25.652 67.2657 24.7573 69.0147 24.2271 70.8869C23.6968 72.7591 23.5415 74.7176 23.77 76.65Z" fill="#DBDBDB"/>
<path d="M60.54 132.62L153.55 121.65L99.61 64.1L60.54 132.62Z" fill="#EBEBEB"/>
<path d="M24.09 136.95L100.87 127.89L57.64 91.37L24.09 136.95Z" fill="#DBDBDB"/>
<path d="M9.06 221.97H250.24L268.84 65.05H27.66L9.06 221.97Z" fill="#2A2A62"/>
<path d="M185.55 48.8H270.76L268.84 65.05H178.73L185.55 48.8Z" fill="#2A2A62"/>
<path d="M135.38 157.68C132.577 157.682 129.836 156.853 127.505 155.297C125.173 153.741 123.356 151.529 122.281 148.94C121.207 146.351 120.925 143.501 121.471 140.752C122.017 138.002 123.365 135.477 125.347 133.494C127.328 131.511 129.853 130.161 132.602 129.613C135.351 129.065 138.2 129.345 140.79 130.418C143.38 131.49 145.594 133.306 147.151 135.637C148.709 137.967 149.54 140.707 149.54 143.51C149.537 147.266 148.045 150.867 145.39 153.523C142.736 156.18 139.136 157.675 135.38 157.68ZM135.38 133.35C133.368 133.348 131.4 133.943 129.726 135.06C128.052 136.177 126.747 137.765 125.976 139.623C125.205 141.482 125.003 143.528 125.395 145.502C125.787 147.475 126.756 149.288 128.179 150.711C129.602 152.134 131.415 153.103 133.388 153.495C135.362 153.887 137.408 153.685 139.266 152.914C141.125 152.143 142.713 150.838 143.83 149.164C144.947 147.49 145.542 145.522 145.54 143.51C145.537 140.816 144.466 138.234 142.561 136.329C140.656 134.424 138.074 133.353 135.38 133.35Z" fill="white"/>
<path d="M135.65 163.21C122.74 163.21 110.09 157.06 98.01 144.93L96.61 143.52L98.01 142.11C110.73 129.32 124.09 123.18 137.71 123.87C158.59 124.93 172.31 141.55 172.88 142.26L173.88 143.52L172.88 144.78C172.31 145.48 158.59 162.1 137.71 163.15C137.03 163.19 136.38 163.21 135.65 163.21ZM102.28 143.52C113.72 154.52 125.57 159.77 137.51 159.16C153.41 158.36 165.09 147.31 168.65 143.52C165.08 139.77 153.38 128.65 137.48 127.87C125.54 127.28 113.71 132.54 102.28 143.52Z" fill="white"/>
<path d="M161.849 114.219L106.065 170.003L108.894 172.831L164.678 117.048L161.849 114.219Z" fill="white"/>
</svg>
