<svg width="121" height="121" viewBox="0 0 121 121" fill="none" xmlns="http://www.w3.org/2000/svg">
<g clip-path="url(#clip0_1_4)">
<rect x="0.5" y="0.5" width="120" height="120" rx="60" fill="#E8E8E8"/>
<path d="M92.18 113.454C90.9376 114.344 89.667 115.177 88.3682 115.981C85.226 117.865 81.9181 119.458 78.4859 120.739C77.6812 121.049 76.8624 121.332 76.0435 121.614C74.1941 122.221 72.2882 122.744 70.3965 123.167C68.7024 123.534 66.98 123.845 65.2294 124.071C62.9282 120.64 60.9941 117.661 59.7376 115.36C58.8624 113.835 57.7047 111.704 56.5329 109.304C52.9047 101.948 49.0788 92.0518 52.6223 89.3554L52.82 89.2142L53.1023 89.0589L53.2859 88.9742C53.6123 88.8287 53.9605 88.738 54.3165 88.706C54.8132 88.6415 55.3162 88.6415 55.8129 88.706C58.3891 89.1179 60.8707 89.9881 63.14 91.2754C63.8035 91.6001 64.4812 91.9671 65.2153 92.3765L65.4976 92.5318C71.5117 95.8918 81.8318 104.475 92.18 113.454Z" fill="#FFC4C0"/>
<path d="M94.2977 111.802C93.6059 112.353 92.8859 112.875 92.18 113.384C90.9377 114.273 89.6671 115.106 88.3682 115.911C85.226 117.794 81.9181 119.387 78.4859 120.668C77.6812 120.979 76.8624 121.261 76.0436 121.544C74.1942 122.151 72.2883 122.673 70.3965 123.097C68.7024 123.464 66.98 123.774 65.2294 124L64.1847 124.127C60.5 118.339 57.3941 113.115 55.2341 109.035L54.8671 108.344C54.1047 106.866 53.4412 105.454 52.8765 104.108C52.453 103.167 52.0859 102.226 51.7753 101.285C51.5777 100.692 51.3941 100.113 51.2247 99.5483C51.0835 99.0542 50.9706 98.5883 50.8577 98.1365C50.7447 97.6847 50.6741 97.2189 50.6036 96.7247C50.4124 95.6822 50.3555 94.6194 50.4341 93.5624C50.4741 92.7966 50.6411 92.0428 50.9283 91.3318C51.0587 91.0043 51.2244 90.6918 51.4224 90.4L51.7188 90.0048C51.8292 89.8756 51.947 89.753 52.0718 89.6377C52.1896 89.5233 52.3171 89.4194 52.453 89.3271L52.6224 89.2142L52.82 89.073L53.1024 88.9177L53.2859 88.833C53.5773 88.6993 53.8796 88.5907 54.1894 88.5083C56.6857 88.1042 59.2456 88.4328 61.5588 89.4542C62.8961 89.9102 64.2024 90.4525 65.4694 91.0777C67.9551 92.3218 70.3515 93.737 72.6412 95.313C79.0365 99.5059 86.7588 105.591 94.2977 111.802Z" fill="#2A2A62"/>
<path opacity="0.1" d="M88.3824 115.911C85.2401 117.794 81.9322 119.387 78.5 120.668C77.6953 120.979 76.8765 121.261 76.0576 121.544C74.2082 122.151 72.3023 122.673 70.4106 123.097C68.7165 123.464 66.9941 123.774 65.2435 124L64.1988 124.127C60.5141 118.339 57.4082 113.115 55.2482 109.035L54.8812 108.344C54.1188 106.866 53.4553 105.454 52.8906 104.108C52.4671 103.167 52.1 102.226 51.7894 101.285C51.5918 100.692 51.4082 100.113 51.2388 99.5483C51.0977 99.0542 50.9847 98.5883 50.8718 98.1365C50.7588 97.6848 50.6882 97.2189 50.6176 96.7248C50.4407 95.6806 50.3839 94.6195 50.4482 93.5624C50.4882 92.7966 50.6552 92.0428 50.9423 91.3318C51.0728 91.0043 51.2385 90.6918 51.4365 90.4001L51.7329 90.0048C51.8433 89.8756 51.9611 89.753 52.0859 89.6377C52.2037 89.5233 52.3312 89.4194 52.4671 89.3271L52.6365 89.2142L52.8341 89.073L53.1165 88.9177L53.3 88.833C53.5967 88.7042 53.9037 88.6003 54.2177 88.5224C54.6293 88.4168 55.05 88.3506 55.4741 88.3248L55.7847 88.5789L60.7824 92.8142L64.8341 96.2024L66.7682 97.8259L88.3824 115.911Z" fill="black"/>
<path d="M76.1 121.544C74.2506 122.151 72.3447 122.673 70.4529 123.097C68.7588 123.464 67.0365 123.774 65.2859 124L64.2412 124.127C55.4103 125.124 46.4683 124.16 38.0529 121.304H37.8977H37.7565L37.0788 121.064C31.1456 118.897 25.5905 115.81 20.6176 111.915C22.2976 108.965 23.8506 106.367 25.3047 104.094C26.3494 102.457 27.3235 100.988 28.2553 99.6754C33.1824 92.6165 36.5847 89.793 39.2388 88.3812L39.7329 88.1412C39.9189 88.0374 40.1123 87.9477 40.3118 87.873C40.6647 87.7177 41.0035 87.6048 41.3282 87.4918C44.9553 86.4125 48.7566 86.0434 52.5235 86.4048C55.7652 86.5351 58.9012 87.5935 61.5588 89.4542C62.1894 89.9656 62.733 90.5758 63.1682 91.2612C63.6576 92.0424 64.1282 92.8471 64.58 93.6754L65.0882 94.5789C65.6812 95.6518 66.26 96.753 66.8247 97.9107C66.8689 97.9754 66.9023 98.0469 66.9235 98.1224C67.2059 98.7012 67.4882 99.2801 67.7706 99.8871C68.0529 100.494 68.3353 101.073 68.6035 101.694C71.402 108.02 73.848 114.496 75.9306 121.092C76.0012 121.219 76.0435 121.374 76.1 121.544Z" fill="#2A2A62"/>
<path d="M43.5024 98.3059C42.9072 102.47 41.9337 106.572 40.5941 110.56C39.38 114.344 38.18 117.802 37.0082 120.979C31.1051 118.832 25.5746 115.774 20.6177 111.915C19.4318 110.998 18.2741 110.024 17.1729 109.092C19.1776 106.424 21.1965 103.84 23.2012 101.369C29.8647 93.1671 35.5683 88.6636 39.2671 88.3953H39.6906C42.7965 88.2965 44.3212 91.5436 43.5024 98.3059Z" fill="#FFC4C0"/>
<path d="M44.293 99.4918C43.9844 102.042 43.5128 104.569 42.8812 107.059C41.8846 110.642 40.6779 114.164 39.2671 117.605L37.7706 121.261H37.6294L36.9518 121.021C31.0658 118.856 25.5545 115.783 20.6177 111.915C19.4318 110.998 18.2741 110.024 17.1729 109.092L16.0294 108.033C19.6786 103.248 23.7413 98.7934 28.1706 94.7201C33.62 89.9201 37.3329 88.0001 39.8318 87.8871H40.34C44.6177 88.0424 44.8718 94.1977 44.293 99.4918Z" fill="#2A2A62"/>
<path d="M39.3235 117.605C38.8859 118.833 38.4341 120.061 37.9824 121.275H37.8271H37.6859C38.2082 120.075 38.7306 118.875 39.2247 117.661L39.3235 117.605Z" fill="#263238"/>
<path d="M56.9847 109.219C50.6177 109.445 42.0059 98.0942 39.3659 89.7507C39.1965 89.1718 41.06 83.8918 43.0224 77.3553C44.1941 73.3883 45.4083 68.8848 46.2271 64.7906C46.3965 63.9436 70.9471 76.2259 70.9471 76.2259C68.4434 81.1055 66.547 86.2734 65.3 91.6142C65.1948 92.187 65.1428 92.7683 65.1447 93.3506C65.1447 93.4353 65.1447 93.5342 65.1447 93.633C65.0177 97.0071 63.14 109.021 56.9847 109.219Z" fill="#FFC4C0"/>
<path d="M47.8082 65.2565C47.6247 72.4989 48.6412 90.2589 62.4341 93.3083C63.3152 93.5121 64.213 93.6349 65.1165 93.6754C65.1221 93.5813 65.1221 93.487 65.1165 93.393C65.1161 92.8113 65.1633 92.2305 65.2576 91.6565C66.5031 86.3108 68.3996 81.1381 70.9047 76.2542C70.9047 76.2542 53.2294 67.4024 47.8082 65.2565Z" fill="#263238"/>
<path d="M41.7941 37.6142C39.14 47.0448 44.6177 74.0377 51.4647 79.9671C61.3471 88.5224 77.1588 89.0165 84.3588 77.2424C91.3329 65.8212 83.5117 30.7671 75.8882 25.4448C64.8059 17.553 45.7471 23.6659 41.7941 37.6142Z" fill="#FFC4C0"/>
<path d="M65.4412 54.6542C65.4412 54.6542 65.3141 54.7812 65.3423 54.8518C65.8223 56.6448 66.0765 58.7765 64.5941 59.7648C64.5941 59.7648 64.5941 59.8918 64.5941 59.8636C66.5565 59.1012 66.1894 56.2777 65.4412 54.6542Z" fill="#263238"/>
<path d="M63.38 53.1577C60.4153 53.6377 61.5871 59.5106 64.3259 59.073C67.0647 58.6354 65.7941 52.7483 63.38 53.1577Z" fill="#263238"/>
<path d="M75.8742 52.5648C75.8742 52.4942 76.0294 52.5648 76.0436 52.6918C76.3541 54.5271 77.0035 56.5742 78.7683 56.8565C78.7683 56.8565 78.8388 56.9553 78.7683 56.9553C76.7071 57.0683 75.86 54.3436 75.8742 52.5648Z" fill="#263238"/>
<path d="M77.0883 50.3342C79.9118 49.5436 81.3236 55.3601 78.6977 56.1083C76.0718 56.8565 74.7024 51.0118 77.0883 50.3342Z" fill="#263238"/>
<path d="M60.6129 50.2777C61.3753 49.9106 62.0247 49.4589 62.7447 49.0353C63.4647 48.6118 64.2412 48.2447 64.6647 47.3553C64.7445 47.0981 64.7396 46.8221 64.6506 46.5679C64.5616 46.3138 64.3934 46.0949 64.1706 45.9436C63.6672 45.7003 63.1073 45.5981 62.5504 45.6478C61.9935 45.6976 61.4606 45.8973 61.0082 46.2259C59.9831 46.7405 59.1839 47.6152 58.7635 48.6824C58.7178 48.9255 58.7366 49.1763 58.8183 49.4098C58.8999 49.6432 59.0415 49.8511 59.2288 50.0127C59.4161 50.1742 59.6425 50.2837 59.8854 50.3303C60.1283 50.3768 60.3792 50.3586 60.6129 50.2777Z" fill="#263238"/>
<path d="M79.2906 47.9483C78.4723 47.9905 77.6524 47.9905 76.8341 47.9483C75.9666 48.0768 75.0808 47.9234 74.3071 47.5106C74.0921 47.3313 73.9423 47.0861 73.881 46.8129C73.8197 46.5398 73.8504 46.254 73.9682 46.0001C74.2719 45.536 74.6932 45.1608 75.1893 44.9127C75.6853 44.6647 76.2383 44.5527 76.7918 44.5883C77.9356 44.4987 79.0721 44.8356 79.9823 45.5342C80.1715 45.7118 80.3082 45.9381 80.3771 46.1883C80.4461 46.4385 80.4447 46.7029 80.3732 46.9524C80.3017 47.2018 80.1629 47.4268 79.9719 47.6025C79.7809 47.7782 79.5452 47.8978 79.2906 47.9483Z" fill="#263238"/>
<path d="M68.1235 65.2848C68.7265 65.9165 69.455 66.415 70.2623 66.7481C71.0696 67.0812 71.9376 67.2416 72.8106 67.2189C73.571 67.2111 74.3265 67.097 75.0553 66.8801C75.196 66.8527 75.3333 66.8101 75.4647 66.753L75.86 66.6118C75.9525 66.5729 76.0299 66.5051 76.0808 66.4186C76.1317 66.3322 76.1533 66.2316 76.1424 66.1318C76.1503 66.0709 76.1503 66.0092 76.1424 65.9483V65.793C75.9024 64.3812 75.3518 62.2777 75.3518 62.2777C75.9024 62.433 78.7541 63.0824 78.5706 62.3624C77.1514 56.0769 75.0986 49.9514 72.4435 44.0801C72.4361 44.0587 72.4246 44.0391 72.4096 44.0222C72.3946 44.0054 72.3764 43.9916 72.3561 43.9818C72.3358 43.972 72.3137 43.9662 72.2912 43.9649C72.2686 43.9636 72.246 43.9668 72.2247 43.9742C72.2034 43.9816 72.1838 43.9931 72.1669 44.0082C72.15 44.0232 72.1363 44.0413 72.1265 44.0617C72.1167 44.082 72.1109 44.104 72.1096 44.1266C72.1083 44.1491 72.1115 44.1717 72.1189 44.193C73.3895 50.0095 75.6765 55.5577 77.06 61.3883C76.0445 61.1395 74.9989 61.0349 73.9541 61.0777C73.7706 61.1765 75.1118 65.1295 75.1683 65.7648V65.8354C74.0437 66.1777 72.8618 66.2903 71.6928 66.1667C70.5238 66.043 69.3916 65.6854 68.3636 65.1153C68.1095 65.0165 67.9824 65.1577 68.1235 65.2848Z" fill="#263238"/>
<path d="M40.7494 58.7342C47.907 59.0871 51.4647 50.4754 49.6435 43.6424C49.6435 43.6424 68.7164 45.7742 69.3094 30.4848C70.6921 32.5269 72.5567 34.1967 74.7384 35.3467C76.92 36.4966 79.3515 37.0911 81.8176 37.0777L84.0623 42.6542C85.9964 42.0471 87.9588 36.4565 83.0882 32.2071C83.0882 32.2071 82.6082 24.6118 76.8905 20.1648C75.3512 18.8821 73.4726 18.0739 71.4827 17.8383C69.4929 17.6027 67.4775 17.9499 65.6811 18.8377C62.3206 16.5046 58.1833 15.5728 54.147 16.2401C52.045 16.627 50.0652 17.5087 48.3714 18.8122C46.6775 20.1158 45.3182 21.8037 44.4059 23.7365C44.4059 23.7365 35.0317 25.7412 33.5635 32.4754C33.1075 34.3744 33.0579 36.3484 33.418 38.268C33.7781 40.1876 34.5397 42.0094 35.6529 43.6142C35.6529 43.6142 33.3517 46.2824 34.6647 51.9718C35.5117 55.5718 38.5894 58.6213 40.7494 58.7342Z" fill="#263238"/>
<path d="M68.8577 29.1295C69.029 30.3642 69.0668 31.6137 68.9706 32.8565C68.9189 34.0864 68.715 35.3051 68.3635 36.4848C67.7163 38.8348 66.203 40.8524 64.1282 42.1318C61.9837 43.3015 59.5955 43.9542 57.1541 44.0377C55.9259 44.0377 54.6835 44.0377 53.4412 44.0377C52.1988 44.0377 50.9565 43.8118 49.7 43.7271C50.9141 44.0095 52.1565 44.2212 53.3988 44.4612C54.6412 44.7012 55.9118 44.6307 57.1823 44.7295C59.7635 44.7508 62.3081 44.1195 64.58 42.8942C66.8243 41.5154 68.4367 39.3098 69.0694 36.753C69.6508 34.2354 69.5779 31.6109 68.8577 29.1295Z" fill="#263238"/>
<path d="M78.8388 37.7554C76.7439 37.0853 74.7739 36.074 73.0082 34.7624C72.1484 34.1143 71.3834 33.3492 70.7353 32.4895C70.0752 31.6141 69.5164 30.6669 69.0694 29.6659C69.2108 30.8077 69.5857 31.9082 70.1706 32.8989C70.7575 33.909 71.5398 34.7921 72.4718 35.4965C73.392 36.1973 74.4161 36.7498 75.5071 37.1342C76.5763 37.5217 77.7018 37.7315 78.8388 37.7554Z" fill="#263238"/>
<path d="M48.0765 59.5671C48.0765 59.5671 41.5824 51.0965 37.7 53.4118C33.8177 55.7271 38.9424 68.2636 43.6859 69.8024C44.2805 70.043 44.9177 70.1605 45.559 70.1478C46.2003 70.1351 46.8324 69.9925 47.417 69.7285C48.0016 69.4646 48.5266 69.0849 48.9603 68.6122C49.3939 68.1396 49.7272 67.584 49.94 66.9789L48.0765 59.5671Z" fill="#FFC4C0"/>
<path d="M39.2671 56.9836V57.1106C42.5988 58.2965 44.4482 61.2612 45.7753 64.353C45.5723 64.0339 45.3025 63.7626 44.9844 63.558C44.6663 63.3534 44.3076 63.2203 43.933 63.168C43.5585 63.1156 43.177 63.1452 42.815 63.2548C42.453 63.3643 42.1192 63.5512 41.8365 63.8024C41.8209 63.817 41.8105 63.8362 41.8068 63.8571C41.8031 63.8781 41.8062 63.8996 41.8157 63.9187C41.8252 63.9377 41.8406 63.9532 41.8596 63.9627C41.8786 63.9723 41.9002 63.9755 41.9212 63.9718C42.4904 63.7681 43.1085 63.7441 43.6917 63.9032C44.275 64.0623 44.7954 64.3967 45.1823 64.8612C45.8155 65.6487 46.3644 66.5004 46.82 67.4024C46.9894 67.6848 47.5118 67.5012 47.3847 67.1765V67.0918C47.2435 62.8989 43.7565 57.1953 39.2671 56.9836Z" fill="#263238"/>
<g opacity="0.2">
<path d="M56.66 62.0942C56.6528 62.209 56.6021 62.3168 56.5181 62.3955C56.4341 62.4742 56.3233 62.5179 56.2082 62.5177C56.0946 62.5074 55.9886 62.4557 55.9106 62.3724C55.8325 62.2891 55.7877 62.1801 55.7847 62.0659C55.7847 61.9499 55.8308 61.8386 55.9129 61.7565C55.995 61.6744 56.1063 61.6283 56.2224 61.6283C56.3384 61.6283 56.4498 61.6744 56.5318 61.7565C56.6139 61.8386 56.66 61.9499 56.66 62.0659V62.0942Z" fill="black"/>
<path d="M65.7941 62.066C65.7758 62.1668 65.7226 62.258 65.6439 62.3237C65.5653 62.3893 65.466 62.4253 65.3635 62.4253C65.261 62.4253 65.1618 62.3893 65.0831 62.3237C65.0044 62.258 64.9513 62.1668 64.9329 62.066C64.9347 62.0091 64.9479 61.9531 64.9718 61.9015C64.9956 61.8498 65.0297 61.8035 65.0719 61.7653C65.114 61.7271 65.1635 61.6978 65.2172 61.6791C65.271 61.6604 65.3279 61.6527 65.3847 61.6565C65.4911 61.6632 65.5914 61.7085 65.6668 61.7839C65.7422 61.8592 65.7874 61.9596 65.7941 62.066Z" fill="black"/>
<path d="M62.4059 65.1012C62.3987 65.2161 62.3479 65.3239 62.264 65.4026C62.18 65.4813 62.0692 65.525 61.9541 65.5248C61.8972 65.523 61.8413 65.5098 61.7896 65.4859C61.738 65.462 61.6917 65.428 61.6535 65.3858C61.6152 65.3437 61.5859 65.2942 61.5672 65.2405C61.5485 65.1867 61.5409 65.1298 61.5447 65.073C61.5465 65.0155 61.5597 64.959 61.5834 64.9066C61.6071 64.8542 61.6409 64.8069 61.6828 64.7676C61.7248 64.7283 61.7741 64.6976 61.8279 64.6773C61.8817 64.657 61.939 64.6476 61.9965 64.6495C62.0534 64.6512 62.1093 64.6644 62.1609 64.6883C62.2126 64.7122 62.2589 64.7462 62.2972 64.7884C62.3354 64.8305 62.3647 64.88 62.3834 64.9337C62.402 64.9875 62.4097 65.0444 62.4059 65.1012Z" fill="black"/>
<path d="M57.0553 58.5365C57.048 58.6501 56.9968 58.7564 56.9124 58.8328C56.8281 58.9093 56.7173 58.9498 56.6035 58.9459C56.5467 58.9442 56.4907 58.931 56.439 58.9071C56.3874 58.8832 56.3411 58.8492 56.3029 58.807C56.2646 58.7648 56.2353 58.7154 56.2166 58.6617C56.198 58.6079 56.1903 58.551 56.1941 58.4942C56.1826 58.4311 56.1852 58.3663 56.2015 58.3043C56.2179 58.2423 56.2476 58.1847 56.2887 58.1355C56.3298 58.0862 56.3812 58.0466 56.4392 58.0195C56.4973 57.9923 56.5606 57.9782 56.6247 57.9782C56.6888 57.9782 56.7521 57.9923 56.8102 58.0195C56.8683 58.0466 56.9196 58.0862 56.9607 58.1355C57.0018 58.1847 57.0315 58.2423 57.0479 58.3043C57.0642 58.3663 57.0668 58.4311 57.0553 58.4942V58.5365Z" fill="black"/>
<path d="M61.22 61.2189C61.2182 61.2764 61.205 61.3329 61.1814 61.3853C61.1577 61.4377 61.1238 61.4849 61.0819 61.5243C61.0399 61.5636 60.9907 61.5943 60.9368 61.6146C60.883 61.6348 60.8257 61.6443 60.7682 61.6424C60.7114 61.6406 60.6554 61.6274 60.6038 61.6036C60.5521 61.5797 60.5058 61.5457 60.4676 61.5035C60.4293 61.4613 60.4 61.4119 60.3814 61.3581C60.3627 61.3044 60.355 61.2474 60.3588 61.1906C60.366 61.0758 60.4168 60.968 60.5007 60.8893C60.5847 60.8106 60.6955 60.7669 60.8106 60.7671C60.8675 60.7689 60.9234 60.7821 60.9751 60.806C61.0267 60.8298 61.073 60.8639 61.1113 60.906C61.1495 60.9482 61.1788 60.9976 61.1975 61.0514C61.2162 61.1051 61.2238 61.1621 61.22 61.2189Z" fill="black"/>
<path d="M83.78 55.8542C83.7782 55.911 83.765 55.967 83.7412 56.0186C83.7173 56.0703 83.6833 56.1166 83.6411 56.1548C83.5989 56.1931 83.5495 56.2224 83.4957 56.2411C83.442 56.2597 83.385 56.2674 83.3283 56.2636C83.2147 56.2563 83.1084 56.2051 83.0319 56.1207C82.9555 56.0364 82.9149 55.9256 82.9188 55.8118C82.9372 55.711 82.9903 55.6198 83.069 55.5541C83.1477 55.4884 83.2469 55.4525 83.3494 55.4525C83.4519 55.4525 83.5512 55.4884 83.6298 55.5541C83.7085 55.6198 83.7617 55.711 83.78 55.8118V55.8542Z" fill="black"/>
<path d="M80.3071 58.1695C80.3053 58.2263 80.2921 58.2823 80.2682 58.3339C80.2443 58.3856 80.2103 58.4319 80.1682 58.4701C80.126 58.5084 80.0766 58.5377 80.0228 58.5564C79.969 58.575 79.9121 58.5827 79.8553 58.5789C79.7404 58.5717 79.6327 58.5209 79.554 58.437C79.4753 58.353 79.4316 58.2422 79.4318 58.1271C79.4335 58.0702 79.4468 58.0143 79.4706 57.9626C79.4945 57.911 79.5285 57.8647 79.5707 57.8265C79.6128 57.7882 79.6623 57.7589 79.716 57.7402C79.7698 57.7215 79.8268 57.7139 79.8836 57.7177C79.9984 57.7249 80.1062 57.7756 80.1849 57.8596C80.2636 57.9436 80.3073 58.0544 80.3071 58.1695Z" fill="black"/>
<path d="M81.0412 61.0636C81.0339 61.1772 80.9826 61.2834 80.8983 61.3599C80.814 61.4363 80.7032 61.4769 80.5894 61.473C80.5326 61.4712 80.4766 61.458 80.4249 61.4341C80.3733 61.4103 80.327 61.3762 80.2888 61.3341C80.2505 61.2919 80.2212 61.2425 80.2025 61.1887C80.1839 61.135 80.1762 61.078 80.18 61.0212C80.1984 60.9204 80.2515 60.8292 80.3302 60.7635C80.4089 60.6978 80.5081 60.6619 80.6106 60.6619C80.7131 60.6619 80.8123 60.6978 80.891 60.7635C80.9697 60.8292 81.0228 60.9204 81.0412 61.0212V61.0636Z" fill="black"/>
<path d="M84.1471 59.2001C84.1453 59.2569 84.1321 59.3129 84.1082 59.3645C84.0843 59.4162 84.0503 59.4625 84.0082 59.5007C83.966 59.5389 83.9166 59.5682 83.8628 59.5869C83.8091 59.6056 83.7521 59.6133 83.6953 59.6095C83.6322 59.6209 83.5674 59.6184 83.5054 59.6021C83.4434 59.5857 83.3858 59.5559 83.3366 59.5149C83.2874 59.4738 83.2478 59.4224 83.2206 59.3644C83.1935 59.3063 83.1794 59.243 83.1794 59.1789C83.1794 59.1148 83.1935 59.0514 83.2206 58.9934C83.2478 58.9353 83.2874 58.8839 83.3366 58.8429C83.3858 58.8018 83.4434 58.772 83.5054 58.7557C83.5674 58.7393 83.6322 58.7368 83.6953 58.7483C83.8151 58.7483 83.93 58.7959 84.0148 58.8806C84.0995 58.9653 84.1471 59.0802 84.1471 59.2001Z" fill="black"/>
</g>
</g>
<defs>
<clipPath id="clip0_1_4">
<rect x="0.5" y="0.5" width="120" height="120" rx="60" fill="white"/>
</clipPath>
</defs>
</svg>
