<svg width="276" height="230" viewBox="0 0 276 230" fill="none" xmlns="http://www.w3.org/2000/svg">
<path d="M130.619 147.367C126.308 151.99 121.487 156.11 116.249 159.647C122.667 143.837 116.437 111.257 116.094 116.09C114.38 139.227 104.046 165.791 98.8787 167.796H98.7931C84.7138 171.815 71.0973 169.904 59.2804 165.457C59.2742 165.432 59.2742 165.405 59.2804 165.38C67.9096 147.299 62.4424 114.042 61.9968 116.184C57.1295 139.149 42.219 154.377 39.2969 154.745C26.9572 146.048 19.6906 136.604 21.0702 135.328C31.1219 126.039 37.7116 104.993 43.1959 82.9696C48.6288 61.2552 49.9913 41.1604 59.2118 21.1256C67.6439 2.77884 89.0241 -3.66521 102.675 3.01021C138.511 20.5343 136.746 140.906 130.619 147.367Z" fill="#263238"/>
<path d="M100.258 1.97363C103.309 2.83056 105.948 4.75863 108.339 6.79811C110.697 8.91886 112.86 11.2477 114.8 13.7563C118.548 18.8724 121.745 24.3701 124.338 30.1578C129.702 41.6491 132.907 54.0317 135.024 66.4827C136.954 78.9749 137.814 91.6089 137.594 104.247C137.594 107.401 137.389 110.554 137.295 113.673L136.703 123.1L135.752 132.526L134.527 141.892L135.187 132.466L135.658 123.04L135.949 113.613C135.949 110.477 136.043 107.341 135.949 104.187C135.918 91.6515 134.912 79.137 132.941 66.757C131.102 54.3885 127.725 42.2981 122.89 30.7662C120.49 24.9959 117.506 19.4859 113.986 14.3219C112.204 11.7654 110.197 9.37361 107.988 7.17516C106.866 6.08859 105.662 5.08882 104.389 4.18449C103.13 3.24554 101.738 2.50032 100.258 1.97363Z" fill="#263238"/>
<path d="M19.2621 132.174C22.0311 127.48 24.5622 122.649 26.8458 117.701C29.1938 112.799 31.3532 107.803 33.2642 102.722C35.1751 97.6401 36.9489 92.5071 38.4057 87.297C39.8625 82.0869 41.105 76.7483 42.4675 71.4696C45.3039 60.9295 48.1146 50.3636 51.5595 39.9863C53.3162 34.8019 55.1585 29.6433 57.3437 24.6217C58.4462 22.111 59.6849 19.6622 61.0542 17.2864C62.451 14.9385 64.0106 12.5819 66.2557 10.9795C64.1648 12.7533 62.828 15.1698 61.5426 17.5521C60.3272 19.9801 59.243 22.4716 58.2949 25.0159C56.324 30.0717 54.6615 35.2561 53.1019 40.4405C49.9913 50.8692 47.172 61.3922 44.5327 71.9666C43.1016 77.2367 41.7906 82.5068 40.2481 87.7855C38.7319 93.0573 36.9092 98.2362 34.7895 103.296C30.6347 113.437 25.4306 123.116 19.2621 132.174Z" fill="#263238"/>
<path d="M102.315 116.063C113.935 152.499 144.304 201.824 159.223 203.983C166.336 205.012 178.83 208.379 189.216 201.413C211.958 186.219 234.632 155.85 241.668 138.197C244.298 131.582 209.816 108.891 204.075 113.904C190.629 125.635 173.62 149.894 171.563 149.449C163.979 147.863 137.286 118.985 118.665 98.6676C96.1023 74.0139 97.6791 101.547 102.315 116.063Z" fill="#FFC4C0"/>
<path d="M118.639 162.628L148.255 125.54C148.255 125.54 124.681 99.5411 109.616 88.7696C101.175 82.7283 96.3765 89.198 97.5677 98.5042C101.741 131.059 118.639 162.628 118.639 162.628Z" fill="#9A81B9"/>
<path d="M118.639 162.628L148.255 125.54C148.255 125.54 124.681 99.5411 109.616 88.7696C101.175 82.7283 96.3765 89.198 97.5677 98.5042C101.741 131.059 118.639 162.628 118.639 162.628Z" fill="#E6DCF3"/>
<path d="M138.828 117.212C138.139 117.212 137.477 117.486 136.989 117.974C136.502 118.462 136.228 119.123 136.228 119.813C136.228 120.503 136.502 121.164 136.989 121.652C137.477 122.14 138.139 122.414 138.828 122.414C139.518 122.414 140.18 122.14 140.667 121.652C141.155 121.164 141.429 120.503 141.429 119.813C141.429 119.123 141.155 118.462 140.667 117.974C140.18 117.486 139.518 117.212 138.828 117.212ZM138.828 121.968C138.402 121.97 137.985 121.845 137.63 121.609C137.275 121.374 136.998 121.038 136.834 120.644C136.671 120.251 136.627 119.818 136.71 119.4C136.793 118.982 136.998 118.598 137.299 118.296C137.6 117.995 137.984 117.79 138.402 117.707C138.82 117.625 139.254 117.668 139.647 117.832C140.04 117.996 140.376 118.273 140.612 118.628C140.848 118.983 140.972 119.4 140.971 119.826C140.962 120.389 140.732 120.926 140.332 121.322C139.931 121.717 139.392 121.94 138.828 121.943V121.968ZM114.886 125.207C114.378 125.207 113.881 125.358 113.458 125.641C113.035 125.923 112.706 126.325 112.511 126.794C112.316 127.264 112.265 127.781 112.365 128.28C112.464 128.778 112.709 129.236 113.068 129.596C113.428 129.955 113.886 130.2 114.385 130.3C114.883 130.399 115.4 130.348 115.87 130.153C116.34 129.959 116.741 129.629 117.024 129.206C117.306 128.784 117.457 128.287 117.457 127.778C117.457 127.096 117.186 126.442 116.704 125.96C116.222 125.478 115.568 125.207 114.886 125.207ZM114.886 129.938C114.318 129.938 113.773 129.712 113.371 129.31C112.969 128.908 112.744 128.363 112.744 127.795C112.744 127.227 112.969 126.682 113.371 126.28C113.773 125.879 114.318 125.653 114.886 125.653C115.454 125.653 115.999 125.879 116.401 126.28C116.803 126.682 117.028 127.227 117.028 127.795C117.028 128.363 116.803 128.908 116.401 129.31C115.999 129.712 115.454 129.938 114.886 129.938ZM116.78 104.444C116.271 104.444 115.774 104.595 115.352 104.877C114.929 105.16 114.599 105.561 114.405 106.031C114.21 106.501 114.159 107.018 114.258 107.516C114.358 108.015 114.603 108.473 114.962 108.833C115.322 109.192 115.78 109.437 116.278 109.536C116.777 109.635 117.294 109.585 117.764 109.39C118.233 109.195 118.635 108.866 118.917 108.443C119.2 108.02 119.351 107.523 119.351 107.015C119.351 106.333 119.08 105.679 118.598 105.197C118.116 104.715 117.462 104.444 116.78 104.444ZM116.78 109.2C116.352 109.203 115.934 109.08 115.576 108.845C115.219 108.61 114.94 108.275 114.773 107.881C114.607 107.487 114.561 107.053 114.642 106.633C114.723 106.213 114.926 105.827 115.227 105.523C115.527 105.219 115.911 105.011 116.33 104.925C116.749 104.839 117.183 104.88 117.579 105.042C117.975 105.203 118.314 105.479 118.553 105.833C118.792 106.187 118.92 106.605 118.922 107.032C118.924 107.603 118.7 108.152 118.299 108.559C117.897 108.965 117.351 109.196 116.78 109.2ZM97.5077 93.6641C97.5077 93.8097 97.5077 93.9554 97.4562 94.1097C97.8971 94.2457 98.2826 94.5199 98.5557 94.8918C98.8288 95.2636 98.9751 95.7135 98.973 96.1748C98.9734 96.621 98.8338 97.0561 98.5741 97.4189C98.3143 97.7816 97.9473 98.0538 97.5248 98.1972C97.5248 98.3086 97.5248 98.42 97.5676 98.5314C97.6105 98.6428 97.5676 98.6085 97.5676 98.6428C98.0984 98.484 98.5637 98.1579 98.8942 97.7132C99.2246 97.2685 99.4025 96.7289 99.4015 96.1748C99.4083 95.6057 99.226 95.0505 98.8833 94.5961C98.5406 94.1417 98.0567 93.8139 97.5077 93.6641ZM133.113 144.531C133.073 144.033 132.889 143.558 132.583 143.163C132.278 142.768 131.863 142.471 131.392 142.307C130.92 142.144 130.411 142.122 129.926 142.243C129.442 142.364 129.003 142.624 128.664 142.99C128.325 143.356 128.099 143.814 128.016 144.306C127.932 144.798 127.994 145.304 128.193 145.762C128.392 146.22 128.72 146.61 129.137 146.884C129.555 147.159 130.043 147.306 130.542 147.307C130.673 147.316 130.805 147.316 130.936 147.307L131.433 146.699C131.163 146.818 130.872 146.883 130.576 146.888C130.149 146.888 129.732 146.761 129.377 146.524C129.021 146.286 128.745 145.949 128.581 145.554C128.418 145.16 128.375 144.726 128.458 144.307C128.542 143.888 128.747 143.503 129.049 143.201C129.351 142.899 129.736 142.693 130.155 142.61C130.574 142.527 131.008 142.57 131.403 142.733C131.797 142.896 132.135 143.173 132.372 143.528C132.609 143.883 132.736 144.301 132.736 144.728C132.736 144.875 132.718 145.022 132.684 145.165L133.113 144.531Z" fill="white"/>
<path opacity="0.1" d="M144.861 129.765L118.648 162.637C118.648 162.637 101.749 131.059 97.5677 98.5135C96.7107 92.1123 98.7673 87.0736 102.838 86.5166L144.861 129.765Z" fill="black"/>
<path d="M141.382 122.172C136.352 127.503 123.13 142.353 115.803 153.125C115.752 153.184 115.983 153.382 116.034 153.33C123.49 145.284 137.166 128.205 141.742 122.481C141.802 122.352 141.476 122.07 141.382 122.172Z" fill="#263238"/>
<path d="M10.8985 214.807L138.623 214.49L131.605 170.589C131.605 170.589 141.708 158.327 139.797 145.036C137.706 130.468 111.433 93.535 109.222 91.4527C100.327 83.1062 90.9179 81.6066 81.8688 84.5973C40.051 110.871 10.8985 214.807 10.8985 214.807Z" fill="#E6DCF3"/>
<path d="M111.347 167.232C106.121 167.706 100.937 168.566 95.8367 169.802C93.3173 170.454 90.8322 171.216 88.3557 172.03C87.1218 172.433 85.8878 172.802 84.6367 173.162C83.3397 173.567 81.9993 173.817 80.6434 173.907C80.6184 173.907 80.5945 173.917 80.5768 173.935C80.5591 173.952 80.5492 173.976 80.5492 174.001C80.5492 174.026 80.5591 174.05 80.5768 174.068C80.5945 174.086 80.6184 174.096 80.6434 174.096C81.926 174.158 83.2114 174.136 84.491 174.027C85.7282 173.881 86.9537 173.649 88.1586 173.333C90.7294 172.699 93.3002 171.953 95.8281 171.293C100.97 169.965 106.163 168.637 111.416 167.686C111.655 167.617 111.595 167.206 111.347 167.232Z" fill="#263238"/>
<path d="M124.261 171.858C119.957 171.406 115.631 171.197 111.304 171.232C109.136 171.232 107.019 171.412 104.834 171.618C103.806 171.721 102.778 171.841 101.749 171.969C100.721 172.098 99.5128 172.406 98.3817 172.535C98.2703 172.535 98.2617 172.732 98.3817 172.724C99.4443 172.629 100.533 172.724 101.612 172.724L104.843 172.638C107.002 172.586 109.128 172.552 111.313 172.484C115.597 172.338 119.933 172.235 124.261 172.235C124.501 172.209 124.484 171.875 124.261 171.858Z" fill="#263238"/>
<path d="M140.902 133.177C141.159 131.832 141.322 130.606 141.451 129.347C141.579 128.087 141.648 126.776 141.648 125.49C141.653 124.145 141.532 122.803 141.288 121.48C141.048 119.947 140.436 118.497 139.505 117.255C138.926 116.531 138.175 115.962 137.32 115.602C136.899 115.429 136.459 115.308 136.009 115.242C135.592 115.182 135.17 115.165 134.75 115.19C133.178 115.301 131.68 115.9 130.465 116.904C129.378 117.776 128.453 118.832 127.731 120.023C126.991 121.204 126.485 122.516 126.24 123.888C126.083 124.71 126.148 125.559 126.429 126.347C126.628 126.852 126.97 127.287 127.414 127.598C127.841 127.881 128.335 128.043 128.845 128.07C129.373 128.102 129.898 127.977 130.354 127.71C130.744 127.46 131.077 127.13 131.33 126.742C131.717 126.116 131.977 125.42 132.093 124.694C132.316 123.398 132.316 122.073 132.093 120.777C131.888 119.483 131.415 118.245 130.705 117.144C130.324 116.563 129.81 116.082 129.205 115.739C128.577 115.399 127.853 115.278 127.149 115.396C125.89 115.682 124.752 116.353 123.892 117.315C122.251 119.119 120.943 121.199 120.028 123.46C121.111 121.319 122.562 119.385 124.312 117.744C125.129 116.956 126.171 116.443 127.294 116.279C127.801 116.267 128.301 116.405 128.729 116.677C129.158 116.948 129.496 117.34 129.702 117.804C130.21 118.791 130.502 119.875 130.559 120.983C130.655 122.085 130.563 123.195 130.285 124.265C130.171 124.723 129.967 125.154 129.685 125.533C129.6 125.648 129.488 125.739 129.36 125.799C129.282 125.824 129.198 125.824 129.12 125.799C129.027 125.783 128.941 125.741 128.871 125.679C128.838 125.623 128.815 125.563 128.802 125.499C128.743 125.126 128.773 124.745 128.888 124.385C129.497 122.415 130.765 120.715 132.479 119.569C133.183 119.074 134.026 118.813 134.887 118.824C135.066 118.832 135.244 118.858 135.418 118.901C135.56 118.94 135.698 118.995 135.829 119.064C136.073 119.21 136.279 119.413 136.429 119.655C136.849 120.417 137.095 121.263 137.149 122.131C137.247 123.197 137.247 124.27 137.149 125.336C137.055 126.454 136.904 127.567 136.695 128.67C136.489 129.775 136.232 130.94 135.941 131.943L140.902 133.177Z" fill="#9A81B9"/>
<path opacity="0.1" d="M140.902 133.177C141.159 131.832 141.322 130.606 141.451 129.347C141.579 128.087 141.648 126.776 141.648 125.49C141.653 124.145 141.532 122.803 141.288 121.48C141.048 119.947 140.436 118.497 139.505 117.255C138.926 116.531 138.175 115.962 137.32 115.602C136.899 115.429 136.459 115.308 136.009 115.242C135.592 115.182 135.17 115.165 134.75 115.19C133.178 115.301 131.68 115.9 130.465 116.904C129.378 117.776 128.453 118.832 127.731 120.023C126.991 121.204 126.485 122.516 126.24 123.888C126.083 124.71 126.148 125.559 126.429 126.347C126.628 126.852 126.97 127.287 127.414 127.598C127.841 127.881 128.335 128.043 128.845 128.07C129.373 128.102 129.898 127.977 130.354 127.71C130.744 127.46 131.077 127.13 131.33 126.742C131.717 126.116 131.977 125.42 132.093 124.694C132.316 123.398 132.316 122.073 132.093 120.777C131.888 119.483 131.415 118.245 130.705 117.144C130.324 116.563 129.81 116.082 129.205 115.739C128.577 115.399 127.853 115.278 127.149 115.396C125.89 115.682 124.752 116.353 123.892 117.315C122.251 119.119 120.943 121.199 120.028 123.46C121.111 121.319 122.562 119.385 124.312 117.744C125.129 116.956 126.171 116.443 127.294 116.279C127.801 116.267 128.301 116.405 128.729 116.677C129.158 116.948 129.496 117.34 129.702 117.804C130.21 118.791 130.502 119.875 130.559 120.983C130.655 122.085 130.563 123.195 130.285 124.265C130.171 124.723 129.967 125.154 129.685 125.533C129.6 125.648 129.488 125.739 129.36 125.799C129.282 125.824 129.198 125.824 129.12 125.799C129.027 125.783 128.941 125.741 128.871 125.679C128.838 125.623 128.815 125.563 128.802 125.499C128.743 125.126 128.773 124.745 128.888 124.385C129.497 122.415 130.765 120.715 132.479 119.569C133.183 119.074 134.026 118.813 134.887 118.824C135.066 118.832 135.244 118.858 135.418 118.901C135.56 118.94 135.698 118.995 135.829 119.064C136.073 119.21 136.279 119.413 136.429 119.655C136.849 120.417 137.095 121.263 137.149 122.131C137.247 123.197 137.247 124.27 137.149 125.336C137.055 126.454 136.904 127.567 136.695 128.67C136.489 129.775 136.232 130.94 135.941 131.943L140.902 133.177Z" fill="black"/>
<path d="M146.052 190.967C149.54 195.894 148.829 210.959 150.945 213.067C153.062 215.175 174.716 214.952 176.173 213.71C177.63 212.467 176.944 207.154 178.581 206.271C179.224 205.92 146.052 190.967 146.052 190.967Z" fill="#9A81B9"/>
<path opacity="0.1" d="M178.581 206.28C178.326 206.471 178.113 206.711 177.954 206.986C177.795 207.262 177.693 207.567 177.656 207.882C167.656 206.716 157.883 204.086 148.649 200.076C148.143 196.408 147.423 192.912 146.078 190.967C146.052 190.967 179.224 205.92 178.581 206.28Z" fill="black"/>
<path d="M249.86 191.208C245.498 197.506 247.855 210.96 245.747 213.068C243.639 215.176 221.967 214.953 220.51 213.711C219.054 212.468 219.722 206.855 218.856 205.801C218.411 205.236 249.86 191.208 249.86 191.208Z" fill="#9A81B9"/>
<path opacity="0.1" d="M249.86 191.208C248.232 193.556 247.538 196.907 247.203 200.274C238.345 204.204 228.955 206.803 219.336 207.987C219.353 207.233 219.188 206.487 218.856 205.81C218.411 205.236 249.86 191.208 249.86 191.208Z" fill="black"/>
<path d="M196.731 100.948C148.083 100.948 129.462 135.054 129.462 155.011C129.462 174.721 143.601 208.141 196.731 208.141C249.86 208.141 267.487 179.785 267.487 154.532C267.487 129.278 245.875 100.948 196.731 100.948Z" fill="#9A81B9"/>
<path d="M214.598 103.415C214.598 103.415 234.495 88.1529 256.047 89.9695C263.468 90.5951 251.145 106.68 250.905 119.233L214.598 103.415Z" fill="#9A81B9"/>
<path opacity="0.1" d="M242.61 113.09C242.482 113.887 249.354 116.826 250.057 116.372C250.76 115.918 251.488 106.029 257.092 95.4887C257.915 93.9377 243.939 104.589 242.61 113.09Z" fill="black"/>
<path opacity="0.3" d="M246.929 152.286C247.593 152.185 248.214 151.897 248.719 151.455C249.224 151.013 249.593 150.437 249.783 149.793C249.718 150.583 249.477 151.348 249.077 152.032C248.676 152.716 248.127 153.301 247.469 153.743C247.366 153.803 247.418 153.983 247.546 153.949C251.351 152.518 250.974 147.094 249.603 143.717C249.536 143.525 249.459 143.336 249.371 143.152C248.515 141.164 247.032 139.724 245.164 139.99C239.011 140.881 241.231 153.109 246.929 152.286Z" fill="black"/>
<path d="M261.583 134.865C262.542 137.727 271.18 135.405 273.357 137.222C276.784 140.058 275.842 175.355 272.705 178.2C270.94 179.794 261.146 178.114 258.395 180.059C255.644 182.005 261.583 134.865 261.583 134.865Z" fill="#9A81B9"/>
<path opacity="0.1" d="M273.854 156.852C273.854 165.422 273.134 172.414 272.243 172.414C271.351 172.414 270.64 165.447 270.64 156.852C270.64 148.258 271.36 141.282 272.243 141.282C273.125 141.282 273.854 148.249 273.854 156.852Z" fill="black"/>
<path opacity="0.3" d="M172.814 112.259C172.96 112.216 187.647 107.435 201.315 111.171L202.678 106.192C187.467 102.028 171.829 107.143 171.177 107.358L172.814 112.259Z" fill="black"/>
<path d="M152.419 187.206C132.796 164.652 144.801 138.464 145.35 137.342C145.727 136.572 145.783 135.685 145.506 134.874C145.229 134.063 144.641 133.396 143.871 133.018C143.102 132.641 142.214 132.585 141.404 132.862C140.593 133.139 139.926 133.727 139.548 134.497C136.9 140.439 135.333 146.805 134.921 153.298C133.978 167.642 138.726 180.813 149.951 189.777C153.336 192.485 154.939 190.102 152.419 187.206Z" fill="white"/>
<path d="M143.876 127.332C143.874 128.027 144.079 128.707 144.464 129.286C144.849 129.865 145.397 130.317 146.039 130.584C146.68 130.851 147.387 130.922 148.069 130.787C148.751 130.653 149.378 130.319 149.87 129.828C150.363 129.337 150.698 128.711 150.834 128.029C150.971 127.347 150.902 126.64 150.636 125.998C150.37 125.356 149.92 124.806 149.342 124.42C148.764 124.033 148.084 123.827 147.389 123.827C146.928 123.826 146.471 123.916 146.045 124.091C145.619 124.267 145.232 124.525 144.905 124.851C144.579 125.176 144.32 125.563 144.143 125.989C143.967 126.415 143.876 126.871 143.876 127.332Z" fill="white"/>
<path d="M66.4785 96.1319C33.9155 130.229 -6.50557 201.482 1.49809 215.655C10.4101 231.449 56.9495 183.195 55.4842 180.864C54.2417 178.894 70.8145 135.705 82.5887 104.324C94.3628 72.9436 74.5422 87.6656 66.4785 96.1319Z" fill="#FFC4C0"/>
<path d="M26.6316 137.008L73.3339 145.423C73.3339 145.423 84.988 112.32 87.3017 93.9473C88.5957 83.6642 82.5458 83.2272 74.9363 88.6943C48.2946 107.855 26.6316 137.008 26.6316 137.008Z" fill="#E6DCF3"/>
<path d="M73.0425 137.77C65.9644 135.885 46.6065 131.317 33.6241 129.989C33.547 129.989 33.4784 130.272 33.5556 130.289C44.1728 133.023 65.6987 136.939 72.9226 138.207C73.0768 138.224 73.1711 137.804 73.0425 137.77Z" fill="#263238"/>
<path d="M67.6525 144.394C69.5834 144.582 71.5029 144.808 73.411 145.071L73.0083 145.311C74.3965 140.221 75.9389 135.182 77.6014 130.177C79.2638 125.173 81.0291 120.211 83.0428 115.318C81.8174 120.46 80.3435 125.516 78.7582 130.554C77.1729 135.593 75.5019 140.589 73.6167 145.533L73.5053 145.833L73.2139 145.773C71.3973 145.345 69.5206 144.891 67.6525 144.394Z" fill="#263238"/>
<path d="M79.9493 125.371C80.3636 124.329 80.8986 123.34 81.5432 122.423C82.1738 121.493 82.8788 120.616 83.6512 119.801C83.549 120.359 83.3642 120.899 83.1028 121.403C82.8576 121.912 82.571 122.399 82.2459 122.86C81.6199 123.815 80.8445 124.662 79.9493 125.371Z" fill="#263238"/>
<path d="M4.01743 217.746C14.7375 225.099 34.4382 219.872 85.2708 211.354C92.3061 210.171 97.3363 158.293 89.7611 159.167C80.2235 160.264 43.4273 166.597 40.7965 167.402C18.5937 174.215 -3.25784 212.776 4.01743 217.746Z" fill="#FFC4C0"/>
<path d="M79.478 160.563C79.478 160.563 100.678 156.056 112.547 157.136C128.443 158.584 141.571 166.382 146.875 169.99C157.946 177.505 179.524 203.315 173.174 210.831C167.424 217.626 146.704 190.127 146.704 190.127C146.704 190.127 172.463 214.678 164.031 221.594C155.598 228.509 133.37 195.217 133.37 195.217C133.37 195.217 159.266 221.036 149.446 226.795C142.025 231.14 120.182 202.124 120.182 202.124C120.182 202.124 142.29 224.473 134.852 229.272C126.634 234.584 104.791 209.065 104.791 209.065C83.8312 218.089 70.1633 213.813 60.7971 209.605C58.5263 208.577 79.478 160.563 79.478 160.563Z" fill="#FFC4C0"/>
<path d="M138.34 181.07C141.468 183.838 144.655 186.632 147.526 189.639C150.397 192.647 153.173 195.826 155.744 199.125C162.068 207.206 164.759 213.256 164.553 212.905C159.652 204.49 149.54 193.436 146.669 190.393C143.799 187.351 141.082 184.181 138.22 181.139C138.151 181.07 138.263 180.984 138.34 181.07Z" fill="#263238"/>
<path d="M127.166 191.225C131.005 194.936 134.955 198.483 138.64 202.365C142.325 206.247 145.435 210.223 148.82 214.362C149.086 214.679 148.82 214.713 148.555 214.414C145.007 210.437 141.416 207.044 137.826 203.111C134.235 199.177 130.791 195.116 127.072 191.328C127.012 191.251 127.106 191.165 127.166 191.225Z" fill="#263238"/>
<path d="M116 198.207C122.161 203.589 127.329 210.093 132.282 216.597C132.53 216.922 132.196 216.931 131.922 216.597C126.643 210.384 122.538 205.457 115.854 198.404C115.709 198.327 115.871 198.113 116 198.207Z" fill="#263238"/>
<path d="M60.5229 163.769C37.2232 168.524 36.5291 168.053 18.4651 183.838C21.0098 180.715 23.7885 177.79 26.7773 175.088C29.7937 172.423 32.93 169.793 36.7519 168.053C44.3613 165.037 52.4421 164.103 60.5229 163.769Z" fill="#263238"/>
<path d="M86.9675 92.6348C87.8245 94.7257 100.31 107.202 110.147 105.223C113.344 104.572 110.567 86.9363 110.567 86.9363L110.661 85.5823L111.947 66.7301L88.39 56.2585L85.0138 54.9131C85.0138 54.9131 85.0138 60.106 85.0566 66.5672C85.0566 66.8672 85.0566 67.1671 85.0566 67.4841C85.0566 67.8012 85.0566 68.1954 85.0566 68.5381C85.0566 69.4979 85.0566 70.4834 85.0566 71.4688C85.0566 72.2144 85.0566 72.9427 85.1166 73.7311C85.1766 74.5195 85.1766 75.2821 85.1937 76.0705C85.5879 83.8085 86.6248 91.7436 86.9675 92.6348Z" fill="#FFC4C0"/>
<path d="M85.0566 66.5415C87.6868 71.3834 91.3396 75.5947 95.7613 78.8828C100.183 82.1709 105.267 84.457 110.661 85.5823L111.947 66.7301L88.39 56.2585L85.0137 54.9131C85.0137 54.9131 85.0051 60.0803 85.0566 66.5415Z" fill="#263238"/>
<path d="M128.503 29.5238C142.093 59.8331 125.478 71.393 118.939 74.3151C113.009 76.9716 92.4604 85.258 75.8104 56.5169C59.1604 27.7757 68.955 11.8798 82.203 5.10151C95.451 -1.67675 114.912 -0.776977 128.503 29.5238Z" fill="#FFC4C0"/>
<path d="M120.67 25.6764C119.92 25.8302 119.162 25.9418 118.399 26.0106C117.615 26.2366 116.777 26.1974 116.017 25.8992C115.798 25.7589 115.63 25.5505 115.54 25.306C115.451 25.0614 115.444 24.7942 115.52 24.5452C115.751 24.0772 116.101 23.6789 116.537 23.3912C116.972 23.1036 117.476 22.937 117.997 22.9085C119.046 22.6902 120.138 22.8673 121.064 23.4055C121.268 23.5409 121.427 23.7324 121.524 23.9568C121.62 24.1812 121.649 24.4288 121.607 24.6694C121.566 24.91 121.455 25.1333 121.288 25.3121C121.122 25.4908 120.907 25.6174 120.67 25.6764Z" fill="#263238"/>
<path d="M101.981 37.9638C102.675 37.6039 103.266 37.1669 103.926 36.747C104.586 36.3271 105.306 35.9672 105.64 35.1274C105.718 34.8785 105.712 34.6108 105.622 34.3659C105.532 34.121 105.363 33.9127 105.143 33.7735C104.665 33.5634 104.139 33.4851 103.621 33.5469C103.103 33.6087 102.61 33.8082 102.195 34.1248C101.253 34.6315 100.535 35.472 100.181 36.4813C100.112 36.7196 100.113 36.9731 100.186 37.2103C100.26 37.4475 100.401 37.6581 100.592 37.816C100.784 37.9738 101.017 38.0719 101.264 38.0982C101.511 38.1245 101.76 38.0778 101.981 37.9638Z" fill="#263238"/>
<path d="M107.508 40.2172C107.457 40.1401 107.379 40.38 107.414 40.4657C108.271 42.5395 108.99 45.0759 107.362 46.5241C107.311 46.567 107.362 46.6698 107.422 46.6355C109.616 45.393 108.691 42.0425 107.508 40.2172Z" fill="#263238"/>
<path d="M104.766 38.7608C101.278 39.8319 103.686 46.7302 106.917 45.7276C110.147 44.725 107.688 37.861 104.766 38.7608Z" fill="#263238"/>
<path d="M103.532 39.593C103.069 40.1929 102.675 41.0926 102.024 41.4183C101.372 41.7439 100.31 41.2897 99.53 40.7927C99.4529 40.7413 99.41 40.7927 99.4443 40.9127C99.8813 42.2409 100.867 43.4149 102.349 43.115C103.703 42.8493 104.226 41.3497 104.063 39.9101C104.063 39.6787 103.72 39.3531 103.532 39.593Z" fill="#263238"/>
<path d="M119.796 35.0411C119.796 34.9555 120.002 35.0411 120.028 35.1783C120.687 37.3377 121.81 39.7028 123.995 39.7542C124.055 39.7542 124.089 39.8656 123.995 39.8828C121.536 40.3541 120.079 37.2006 119.796 35.0411Z" fill="#263238"/>
<path d="M120.953 32.1535C124.304 30.7224 126.952 37.5349 123.815 38.8632C120.679 40.1914 118.142 33.3617 120.953 32.1535Z" fill="#263238"/>
<path d="M122.547 32.0596C123.224 32.2138 124.004 32.6594 124.664 32.4537C125.323 32.2481 125.7 31.2712 125.906 30.38C125.906 30.2857 126 30.3286 126.035 30.38C126.574 31.6654 126.66 33.1907 125.512 33.9191C124.364 34.6475 123.19 33.7905 122.376 32.6165C122.23 32.4366 122.273 31.9653 122.547 32.0596Z" fill="#263238"/>
<path d="M114.526 58.2546C115.195 58.6145 115.923 59.1544 116.728 58.983C117.529 58.7279 118.265 58.3042 118.888 57.7405C118.902 57.7322 118.918 57.7281 118.934 57.7285C118.95 57.729 118.966 57.7339 118.979 57.7429C118.993 57.7519 119.003 57.7644 119.01 57.7791C119.016 57.7939 119.019 57.8102 119.016 57.8262C118.837 58.3462 118.518 58.8071 118.095 59.159C117.672 59.5109 117.161 59.7405 116.617 59.8228C116.141 59.8422 115.671 59.7187 115.266 59.4683C114.861 59.2178 114.541 58.8518 114.346 58.4174C114.269 58.306 114.466 58.2032 114.526 58.2546Z" fill="#263238"/>
<path d="M120.627 47.3898C120.627 47.3898 122.213 50.4061 122.761 51.8972C122.813 52.0429 122.47 52.2399 121.973 52.4542C121.973 52.4542 121.973 52.4542 121.913 52.4542C120.713 53.154 119.343 53.5098 117.954 53.4825C116.564 53.4553 115.21 53.0462 114.038 52.2999C114.019 52.2904 114.002 52.2771 113.987 52.261C113.973 52.2448 113.963 52.2261 113.956 52.2058C113.949 52.1855 113.947 52.164 113.948 52.1427C113.95 52.1214 113.955 52.1005 113.965 52.0814C113.974 52.0623 113.988 52.0452 114.004 52.0312C114.02 52.0172 114.039 52.0065 114.059 51.9997C114.079 51.993 114.101 51.9903 114.122 51.9918C114.143 51.9933 114.164 51.999 114.183 52.0086C116.568 52.6236 119.087 52.4492 121.364 51.5116C121.313 51.066 118.468 46.4386 118.699 46.37C119.898 46.051 121.135 45.8953 122.376 45.9073C119.248 39.5318 115.117 33.7047 112.092 27.3035C112.068 27.257 112.062 27.2033 112.075 27.1524C112.087 27.1015 112.118 27.0571 112.162 27.0276C112.205 26.998 112.258 26.9853 112.31 26.992C112.362 26.9986 112.409 27.0241 112.444 27.0636C117.208 32.8649 120.97 40.1316 124.372 46.6357C124.809 47.3898 121.322 47.3898 120.627 47.3898Z" fill="#263238"/>
<path d="M80.1207 63.6715C85.4165 57.2446 82.3573 49.9608 82.3573 49.9608C86.6293 45.0578 89.5216 39.1077 90.738 32.7195C90.8322 33.4479 91.5006 38.7179 91.7577 41.4515C109.59 28.5977 108.588 10.7566 108.588 10.7566C117.911 14.0986 121.09 17.552 122.958 19.1373C122.958 19.1373 117.44 7.07179 107.534 1.9474C95.3482 -4.33384 68.6037 5.03232 62.8537 23.4219C56.6325 43.2853 80.1207 63.6715 80.1207 63.6715Z" fill="#263238"/>
<path d="M105.091 31.2379C102.761 34.4376 99.9684 37.2735 96.8049 39.6529C96.8049 39.6529 96.745 39.6529 96.8049 39.6101C101.601 35.525 105.162 30.1833 107.088 24.1854C107.896 21.6281 108.38 18.9795 108.528 16.3018C108.797 13.3761 108.486 10.4259 107.611 7.62114C107.534 7.42405 107.851 7.30408 107.919 7.50117C108.973 10.3119 109.907 12.9084 110.002 15.9419C110.095 18.8385 109.659 21.7279 108.716 24.4682C107.85 26.8897 106.647 29.1773 105.143 31.2636" fill="#263238"/>
<path d="M81.6631 56.6792C81.6631 56.6792 71.3801 49.2754 67.8153 53.2515C64.2505 57.2277 74.3193 69.6702 80.1892 69.7816C80.9442 69.8495 81.7051 69.764 82.4262 69.5302C83.1472 69.2965 83.8136 68.9193 84.3851 68.4214C84.9567 67.9235 85.4217 67.3151 85.752 66.6329C86.0824 65.9507 86.2714 65.2087 86.3077 64.4515L81.6631 56.6792Z" fill="#FFC4C0"/>
<path d="M70.7631 56.7479C70.6774 56.7479 70.7031 56.8936 70.7631 56.8936C74.9363 57.1078 78.0384 59.8242 80.6091 62.892C79.0495 61.9151 77.3185 61.6837 75.956 63.6118C75.8789 63.7147 76.0246 63.8346 76.1189 63.7746C76.6972 63.3247 77.4046 63.0719 78.1371 63.0534C78.8697 63.0349 79.5889 63.2516 80.1892 63.6718C81.1823 64.3375 82.099 65.1105 82.9228 65.9769C83.2056 66.2426 83.7797 65.8655 83.4798 65.5313L83.4198 65.4542C81.9031 60.7326 75.9732 55.4711 70.7631 56.7479Z" fill="#263238"/>
<path d="M85.168 72.533C85.5771 74.0456 85.7534 75.6118 85.6907 77.1775C85.5536 79.3198 84.6452 79.9711 83.9083 80.1424C83.6165 80.2201 83.311 80.2312 83.0143 80.1748C82.7176 80.1185 82.4374 79.9961 82.1944 79.8168C79.7608 78.1458 78.7668 71.0334 78.5354 69.4309C79.0238 69.5766 79.478 69.6794 79.8979 69.7651C80.2835 72.4216 81.3118 77.6316 82.9228 78.7628C83.0206 78.8299 83.1313 78.876 83.2478 78.8981C83.3644 78.9202 83.4842 78.9179 83.5998 78.8913C84.2254 78.7371 84.5339 77.486 84.371 75.635C84.1816 73.5658 83.6608 71.5405 82.8286 69.6366C82.2544 68.2569 81.6289 67.34 81.2775 67.3229C81.1948 67.3432 81.1089 67.3469 81.0247 67.3337C80.9405 67.3206 80.8598 67.2908 80.7872 67.2461C80.7147 67.2015 80.6517 67.1428 80.602 67.0736C80.5523 67.0044 80.5169 66.926 80.4977 66.843C80.4631 66.6775 80.4925 66.505 80.5799 66.3603C80.6674 66.2156 80.8064 66.1095 80.9691 66.0632C82.1516 65.7719 83.2228 67.2972 84.0111 69.131C84.5011 70.2268 84.8884 71.3656 85.168 72.533Z" fill="#9A81B9"/>
<path d="M176.165 103.089C182.223 98.8904 189.147 88.7787 194.408 87.2534C195.691 86.8309 197.075 86.8328 198.356 87.2588C199.637 87.6848 200.747 88.5123 201.521 89.6185C201.521 89.6185 203.312 83.8257 208.316 83.2344C210.887 82.926 213.638 86.7735 213.638 86.7735C213.638 86.7735 215.283 82.189 219.765 81.9405C223.338 81.7348 225.558 85.6167 225.558 85.6167C225.558 85.6167 229.174 81.9576 232.884 82.9174C240.391 84.8626 245.361 115.155 234.967 121.667C230.116 124.701 229.311 117.237 229.311 117.237C229.311 117.237 227.88 128.249 221.659 129.431C215.437 130.614 214.975 120.862 214.975 120.862C214.975 120.862 213.501 131.531 206.928 132.105C200.073 132.705 201.29 122.859 201.29 122.859C201.29 122.859 197.862 130.339 192.72 129.628C184.245 128.454 192.669 110.827 189.995 104.426L176.165 103.089Z" fill="#FFC4C0"/>
<path d="M225.995 86.1921C225.995 86.1742 226 86.1566 226.011 86.142C226.021 86.1274 226.036 86.1165 226.053 86.1108C226.07 86.1052 226.089 86.105 226.106 86.1103C226.123 86.1157 226.138 86.1263 226.149 86.1407C230.211 95.704 231.736 107.461 229.405 117.658C229.328 117.993 228.745 118.01 228.762 117.658C229.165 106.664 228.642 96.8951 225.995 86.1921Z" fill="#263238"/>
<path d="M213.681 86.6283C213.681 86.5169 213.843 86.4655 213.895 86.5854C218.025 96.4657 219.388 109.722 215.309 121.188C215.163 121.574 214.649 121.788 214.777 121.325C216.911 113.519 216.114 96.2344 213.681 86.6283Z" fill="#263238"/>
<path d="M200.732 123.605C204.212 112.465 203.792 101.385 201.709 90.0395C201.709 89.8938 201.898 89.8681 201.949 89.9881C204.52 95.2582 205.051 102.628 205.009 108.403C205.076 113.763 203.734 119.047 201.118 123.725C201.015 123.914 200.655 123.845 200.732 123.605Z" fill="#263238"/>
</svg>
