<svg xmlns="http://www.w3.org/2000/svg" version="1.1" xmlns:xlink="http://www.w3.org/1999/xlink" width="512" height="512" x="0" y="0" viewBox="0 0 511.038 511.038" style="enable-background:new 0 0 512 512" xml:space="preserve"><g><path d="M477.867 16.391h-32.794c-4.143 0-7.5 3.357-7.5 7.5s3.357 7.5 7.5 7.5h32.794a3.469 3.469 0 0 1 3.465 3.464v201.36a3.469 3.469 0 0 1-3.465 3.464H170.988V224.68h202.549c4.143 0 7.5-3.357 7.5-7.5s-3.357-7.5-7.5-7.5H170.988v-31.815c0-20.107-16.359-36.467-36.468-36.467-20.107 0-36.467 16.359-36.467 36.467v31.815H80.702c-2.695-10.229-10.767-18.301-20.996-20.996v-53.289c0-4.143-3.357-7.5-7.5-7.5s-7.5 3.357-7.5 7.5v59.822c0 4.143 3.357 7.5 7.5 7.5 7.975 0 14.463 6.488 14.463 14.463 0 4.143 3.357 7.5 7.5 7.5h23.885v14.999H33.17a3.468 3.468 0 0 1-3.464-3.464V34.854a3.468 3.468 0 0 1 3.464-3.464h103.617v15H74.169a7.499 7.499 0 0 0-7.5 7.5c0 7.975-6.488 14.463-14.463 14.463a7.499 7.499 0 0 0-7.5 7.5v27.578c0 4.143 3.357 7.5 7.5 7.5s7.5-3.357 7.5-7.5V82.387c10.229-2.695 18.301-10.767 20.996-20.996h56.085v2.891c0 17.993 14.639 32.632 32.633 32.632 8.347 0 15.968-3.153 21.745-8.327 5.58 10.01 16.27 16.799 28.521 16.799 12.25 0 22.941-6.789 28.52-16.799 5.777 5.173 13.398 8.327 21.745 8.327 12.782 0 23.865-7.391 29.217-18.12 5.687 4.813 13.032 7.724 21.048 7.724 15.41 0 28.351-10.74 31.751-25.126h78.37c2.695 10.229 10.767 18.301 20.996 20.996v106.297c-10.229 2.695-18.301 10.767-20.996 20.996H405.5c-4.143 0-7.5 3.357-7.5 7.5s3.357 7.5 7.5 7.5h31.37c4.143 0 7.5-3.357 7.5-7.5 0-7.975 6.488-14.463 14.463-14.463 4.143 0 7.5-3.357 7.5-7.5V75.854c0-4.143-3.357-7.5-7.5-7.5-7.975 0-14.463-6.488-14.463-14.463 0-4.143-3.357-7.5-7.5-7.5h-84.021v-15h60.263c4.143 0 7.5-3.357 7.5-7.5s-3.357-7.5-7.5-7.5h-61.658C348.086 6.854 338.988 0 328.313 0h-16.197c-6.612 0-12.617 2.634-17.033 6.902C290.667 2.634 284.661 0 278.049 0h-16.197c-6.612 0-12.618 2.634-17.034 6.902C240.401 2.634 234.396 0 227.783 0h-16.196c-6.612 0-12.618 2.634-17.034 6.902C190.136 2.634 184.131 0 177.519 0h-16.197c-10.674 0-19.773 6.854-23.139 16.391H33.17c-10.181 0-18.464 8.283-18.464 18.464v201.36c0 10.181 8.283 18.464 18.464 18.464h64.884v55.629c0 16 6.23 31.042 17.543 42.355l32.115 32.114v118.761c0 4.143 3.357 7.5 7.5 7.5s7.5-3.357 7.5-7.5V381.671c0-1.989-.79-3.896-2.196-5.304l-34.312-34.312c-8.48-8.479-13.15-19.755-13.15-31.748V177.864c0-11.837 9.63-21.467 21.467-21.467s21.468 9.63 21.468 21.467v69.315c0 4.143 3.357 7.5 7.5 7.5 33.717 0 61.147 27.431 61.147 61.147v4.805c0 4.143 3.357 7.5 7.5 7.5s7.5-3.357 7.5-7.5v-4.805c0-25.027-12.145-47.26-30.841-61.148h157.242v3.875c0 13.316-4.101 26.077-11.858 36.9l-21.588 30.12a7.498 7.498 0 0 0-1.404 4.369v173.595c0 4.143 3.357 7.5 7.5 7.5s7.5-3.357 7.5-7.5V332.354l20.184-28.161c9.596-13.387 14.667-29.168 14.667-45.639v-3.875h96.83c10.182 0 18.465-8.283 18.465-18.464V34.854c-.001-10.18-8.284-18.463-18.466-18.463zM312.116 15h16.197c5.257 0 9.534 4.277 9.534 9.534v29.35c0 9.723-7.91 17.633-17.633 17.633s-17.632-7.91-17.632-17.633v-29.35c.001-5.257 4.277-9.534 9.534-9.534zm-50.264 0h16.197c5.257 0 9.534 4.277 9.534 9.534v39.747c0 9.723-7.91 17.632-17.633 17.632s-17.633-7.909-17.633-17.632V24.534c0-5.257 4.278-9.534 9.535-9.534zm-50.265 0h16.196c5.257 0 9.534 4.277 9.534 9.534v48.22c0 9.723-7.909 17.632-17.632 17.632h-.001c-9.723 0-17.632-7.909-17.632-17.632v-48.22c.001-5.257 4.278-9.534 9.535-9.534zm-59.8 9.534c0-5.257 4.277-9.534 9.534-9.534h16.197c5.257 0 9.534 4.277 9.534 9.534v39.747c0 9.723-7.91 17.632-17.633 17.632s-17.633-7.909-17.633-17.632V24.534z" fill="#ffffff" opacity="1" data-original="#ffffff"></path><path d="M198.939 114.432c-4.084-.63-7.923 2.179-8.553 6.273a66.717 66.717 0 0 0-.771 10.101c0 36.373 29.592 65.965 65.965 65.965s65.965-29.592 65.965-65.965c0-6.168-.869-12.313-2.583-18.268-1.146-3.982-5.311-6.283-9.281-5.133a7.5 7.5 0 0 0-5.133 9.281 51.05 51.05 0 0 1 1.997 14.119c0 28.103-22.862 50.965-50.965 50.965s-50.965-22.862-50.965-50.965c0-2.616.2-5.247.597-7.821a7.498 7.498 0 0 0-6.273-8.552z" fill="#ffffff" opacity="1" data-original="#ffffff"></path></g></svg>
